<?xml version="1.0" encoding="utf-8"?>
<!-- Generated by IcoMoon.io -->
<!DOCTYPE svg PUBLIC "-//W3C//DTD SVG 1.1//EN" "http://www.w3.org/Graphics/SVG/1.1/DTD/svg11.dtd">
<svg version="1.1" xmlns="http://www.w3.org/2000/svg" xmlns:xlink="http://www.w3.org/1999/xlink" width="28" height="28" viewBox="0 0 28 28">
	<path d="M21.875 3.5h-15.75c-1.45 0-2.625 1.175-2.625 2.625v0.875h21v-0.875c0-1.45-1.175-2.625-2.625-2.625zM17.29 1.75l0.386 2.762h-7.352l0.386-2.762h6.58M17.5 0h-7c-0.722 0-1.394 0.585-1.494 1.3l-0.512 3.662c-0.1 0.715 0.409 1.3 1.131 1.3h8.75c0.722 0 1.231-0.585 1.131-1.3l-0.512-3.662c-0.1-0.715-0.772-1.3-1.494-1.3v0zM22.313 8.75h-16.625c-0.962 0-1.679 0.784-1.592 1.743l1.433 15.764c0.087 0.959 0.946 1.743 1.908 1.743h13.125c0.963 0 1.821-0.784 1.908-1.743l1.433-15.764c0.087-0.959-0.629-1.743-1.592-1.743zM10.5 24.5h-2.625l-0.875-12.25h3.5v12.25zM15.75 24.5h-3.5v-12.25h3.5v12.25zM20.125 24.5h-2.625v-12.25h3.5l-0.875 12.25z" fill="#34495e" />
</svg>
