<?xml version="1.0" encoding="utf-8"?>
<!-- Generated by IcoMoon.io -->
<!DOCTYPE svg PUBLIC "-//W3C//DTD SVG 1.1//EN" "http://www.w3.org/Graphics/SVG/1.1/DTD/svg11.dtd">
<svg version="1.1" xmlns="http://www.w3.org/2000/svg" xmlns:xlink="http://www.w3.org/1999/xlink" width="28" height="28" viewBox="0 0 28 28">
	<path d="M11.949 22.372c0 2.053-1.268 3.675-4.861 3.806-2.105-1.197-3.869-2.924-5.111-5 0.648-1.599 2.671-2.818 4.985-2.792 0.657 0.007 1.269 0.112 1.825 0.293 1.529 1.063 2.762 1.727 3.071 2.938 0.058 0.245 0.090 0.498 0.090 0.756zM14 0c-4.045 0-7.689 1.716-10.245 4.46 1.010-0.559 2.202-0.892 3.47-0.892 1.834 0 7.012 0 7.012 0l-1.567 1.644h-1.841c1.299 0.744 1.989 2.276 1.989 3.965 0 1.55-0.859 2.799-2.072 3.748-1.183 0.924-1.408 1.312-1.408 2.098 0 0.671 1.414 1.671 2.064 2.158 2.265 1.698 2.723 2.767 2.723 4.891 0 2.153-1.885 4.296-5.082 5.024 1.541 0.583 3.211 0.904 4.956 0.904 7.732 0 14-6.268 14-14s-6.268-14-14-14zM21 10.5v3.5h-1.75v-3.5h-3.5v-1.75h3.5v-3.5h1.75v3.5h3.5v1.75h-3.5zM10.001 9.282c0.326 2.482-0.761 4.079-2.651 4.023-1.89-0.057-3.686-1.791-4.012-4.272-0.326-2.482 0.941-4.382 2.831-4.326 1.889 0.057 3.506 2.093 3.832 4.575zM6.040 17.557c-2.042 0-3.777 0.705-5 1.746-0.67-1.636-1.040-3.426-1.040-5.303 0-1.552 0.253-3.045 0.719-4.441 0.202 2.719 2.115 4.818 5.277 4.818 0.233 0 0.458-0.012 0.68-0.028-0.217 0.416-0.372 0.88-0.372 1.367 0 0.819 0.451 1.287 1.008 1.829-0.421 0-0.828 0.011-1.272 0.011z" fill="#1abc9c" />
</svg>
