<?xml version="1.0" encoding="utf-8"?>
<!-- Generated by IcoMoon.io -->
<!DOCTYPE svg PUBLIC "-//W3C//DTD SVG 1.1//EN" "http://www.w3.org/Graphics/SVG/1.1/DTD/svg11.dtd">
<svg version="1.1" xmlns="http://www.w3.org/2000/svg" xmlns:xlink="http://www.w3.org/1999/xlink" width="28" height="28" viewBox="0 0 28 28">
	<path d="M14 0c-7.732 0-14 6.268-14 14s6.268 14 14 14 14-6.268 14-14-6.268-14-14-14zM22.046 9.873c0.008 0.178 0.012 0.357 0.012 0.537 0 5.486-4.176 11.812-11.811 11.812-2.344 0-4.526-0.687-6.364-1.865 0.325 0.039 0.655 0.058 0.99 0.058 1.945 0 3.735-0.664 5.156-1.777-1.817-0.033-3.35-1.234-3.878-2.883 0.254 0.048 0.514 0.074 0.781 0.074 0.379 0 0.745-0.051 1.094-0.146-1.899-0.382-3.33-2.059-3.33-4.071 0-0.018 0-0.035 0-0.052 0.56 0.311 1.2 0.498 1.88 0.519-1.114-0.744-1.847-2.015-1.847-3.455 0-0.761 0.205-1.474 0.562-2.087 2.047 2.512 5.106 4.164 8.557 4.337-0.071-0.304-0.107-0.621-0.107-0.946 0-2.292 1.859-4.151 4.151-4.151 1.194 0 2.273 0.504 3.030 1.311 0.946-0.186 1.834-0.532 2.636-1.007-0.31 0.969-0.968 1.783-1.825 2.297 0.84-0.1 1.64-0.324 2.384-0.654-0.556 0.833-1.26 1.564-2.072 2.149z" fill="#1abc9c" />
</svg>
